<svg width="572" height="91" viewBox="0 0 572 91" fill="none" xmlns="http://www.w3.org/2000/svg">
<path d="M48 4L96 4L120 45.5L96 87H48L24 45.5L48 4Z" fill="black"/>
<path d="M71.6808 21.2213L92.4654 33.2013V57.1613L71.6808 69.1413L50.8962 57.1613V33.2013L71.6808 21.2213Z" fill="white"/>
<path d="M65.5731 34.6988H77.5731L83.5731 45.0738L77.5731 55.4488H65.5731L59.5731 45.0738L65.5731 34.6988Z" fill="black"/>
<path d="M137.504 68V22.56H144.416V44.448L141.088 42.016H168.736L165.408 44.448V22.56H172.32V68H165.408V45.856L168.736 48.288H141.088L144.416 45.856V68H137.504ZM196.003 68.768C192.676 68.768 189.796 68.0427 187.364 66.592C184.974 65.1413 183.118 63.072 181.796 60.384C180.516 57.696 179.876 54.56 179.876 50.976C179.876 47.392 180.516 44.2773 181.796 41.632C183.118 38.944 184.974 36.8747 187.364 35.424C189.753 33.9307 192.569 33.184 195.812 33.184C198.884 33.184 201.593 33.9093 203.94 35.36C206.286 36.768 208.1 38.816 209.38 41.504C210.702 44.192 211.364 47.4347 211.364 51.232V52.96H186.916C187.086 56.288 187.961 58.784 189.54 60.448C191.161 62.112 193.337 62.944 196.068 62.944C198.073 62.944 199.737 62.4747 201.06 61.536C202.382 60.5973 203.3 59.3387 203.812 57.76L210.852 58.208C209.956 61.3653 208.185 63.9253 205.54 65.888C202.937 67.808 199.758 68.768 196.003 68.768ZM186.916 47.84H204.196C203.982 44.8107 203.108 42.5707 201.572 41.12C200.078 39.6693 198.158 38.944 195.812 38.944C193.38 38.944 191.374 39.712 189.796 41.248C188.26 42.7413 187.3 44.9387 186.916 47.84ZM213.571 68L225.923 50.592L214.083 33.952H221.635L230.019 46.176L238.147 33.952H245.891L234.179 50.72L246.403 68H238.851L230.083 55.008L221.251 68H213.571ZM263.902 68L251.87 22.56H259.23L268.062 58.464L276.894 22.56H283.934L292.766 58.464L301.534 22.56H309.022L296.926 68H288.862L280.414 34.848L271.966 68H263.902ZM322.524 68.768C318.982 68.768 316.145 67.9573 314.012 66.336C311.921 64.7147 310.876 62.432 310.876 59.488C310.876 56.544 311.75 54.2613 313.5 52.64C315.292 50.976 318.044 49.7813 321.756 49.056L333.468 46.816C333.468 44.1707 332.849 42.208 331.612 40.928C330.374 39.6053 328.54 38.944 326.108 38.944C323.932 38.944 322.225 39.4347 320.988 40.416C319.75 41.3547 318.897 42.7627 318.428 44.64L311.452 44.192C312.092 40.7787 313.67 38.0907 316.188 36.128C318.748 34.1653 322.054 33.184 326.108 33.184C330.716 33.184 334.214 34.4213 336.604 36.896C339.036 39.328 340.252 42.7627 340.252 47.2V60.448C340.252 61.2587 340.38 61.8347 340.636 62.176C340.934 62.4747 341.404 62.624 342.044 62.624H343.26V68C343.046 68.0427 342.705 68.0853 342.236 68.128C341.766 68.1707 341.276 68.192 340.764 68.192C339.313 68.192 338.054 67.9573 336.988 67.488C335.964 67.0187 335.196 66.2507 334.684 65.184C334.172 64.0747 333.916 62.6027 333.916 60.768L334.62 61.088C334.278 62.5813 333.532 63.904 332.38 65.056C331.27 66.208 329.841 67.1253 328.092 67.808C326.385 68.448 324.529 68.768 322.524 68.768ZM323.612 63.392C325.66 63.392 327.409 63.008 328.86 62.24C330.31 61.4293 331.441 60.32 332.252 58.912C333.062 57.504 333.468 55.904 333.468 54.112V51.936L323.484 53.856C321.436 54.24 319.985 54.8587 319.132 55.712C318.321 56.5227 317.916 57.568 317.916 58.848C317.916 60.2987 318.406 61.4293 319.388 62.24C320.412 63.008 321.82 63.392 323.612 63.392ZM362.434 78.368C359.746 78.368 357.378 77.9627 355.33 77.152C353.282 76.3413 351.596 75.1893 350.274 73.696C348.951 72.2453 348.055 70.5387 347.586 68.576L354.626 68.128C355.095 69.536 355.906 70.6453 357.058 71.456C358.252 72.3093 360.044 72.736 362.434 72.736C365.25 72.736 367.404 72.1387 368.898 70.944C370.434 69.7493 371.202 67.936 371.202 65.504V60.576C370.391 62.3253 369.09 63.712 367.298 64.736C365.506 65.76 363.5 66.272 361.282 66.272C358.423 66.272 355.884 65.568 353.666 64.16C351.447 62.752 349.719 60.8107 348.482 58.336C347.244 55.8613 346.626 53.0027 346.626 49.76C346.626 46.4747 347.223 43.5947 348.418 41.12C349.655 38.6453 351.362 36.704 353.538 35.296C355.756 33.888 358.252 33.184 361.026 33.184C363.458 33.184 365.591 33.7387 367.426 34.848C369.303 35.9573 370.647 37.4507 371.458 39.328V33.952H377.986V65.312C377.986 68.128 377.346 70.496 376.066 72.416C374.828 74.3787 373.036 75.8507 370.69 76.832C368.386 77.856 365.634 78.368 362.434 78.368ZM362.37 60.512C365.015 60.512 367.127 59.552 368.706 57.632C370.327 55.712 371.159 53.0667 371.202 49.696C371.244 47.4773 370.903 45.5787 370.178 44C369.452 42.3787 368.407 41.1413 367.042 40.288C365.719 39.392 364.162 38.944 362.37 38.944C359.596 38.944 357.442 39.9253 355.906 41.888C354.412 43.808 353.666 46.4107 353.666 49.696C353.666 53.024 354.434 55.6693 355.97 57.632C357.548 59.552 359.682 60.512 362.37 60.512ZM401.003 68.768C397.761 68.768 394.924 68.0427 392.492 66.592C390.06 65.1413 388.182 63.072 386.86 60.384C385.537 57.696 384.876 54.56 384.876 50.976C384.876 47.3493 385.537 44.2133 386.86 41.568C388.182 38.9227 390.06 36.8747 392.492 35.424C394.924 33.9307 397.761 33.184 401.003 33.184C404.246 33.184 407.084 33.9307 409.516 35.424C411.948 36.8747 413.825 38.9227 415.148 41.568C416.47 44.2133 417.132 47.3493 417.132 50.976C417.132 54.56 416.47 57.696 415.148 60.384C413.825 63.072 411.948 65.1413 409.516 66.592C407.084 68.0427 404.246 68.768 401.003 68.768ZM401.003 62.88C403.905 62.88 406.145 61.8347 407.724 59.744C409.302 57.6107 410.092 54.688 410.092 50.976C410.092 47.264 409.302 44.3627 407.724 42.272C406.145 40.1387 403.905 39.072 401.003 39.072C398.145 39.072 395.905 40.1387 394.284 42.272C392.705 44.3627 391.916 47.264 391.916 50.976C391.916 54.688 392.705 57.6107 394.284 59.744C395.905 61.8347 398.145 62.88 401.003 62.88ZM423.988 68V33.952H430.196L430.452 43.04L429.62 42.592C430.004 40.3733 430.729 38.5813 431.796 37.216C432.862 35.8507 434.164 34.848 435.7 34.208C437.236 33.5253 438.9 33.184 440.692 33.184C443.252 33.184 445.364 33.76 447.028 34.912C448.734 36.0213 450.014 37.5573 450.868 39.52C451.764 41.44 452.212 43.6373 452.212 46.112V68H445.428V48.16C445.428 46.1547 445.214 44.4693 444.788 43.104C444.361 41.7387 443.657 40.6933 442.676 39.968C441.694 39.2427 440.414 38.88 438.836 38.88C436.446 38.88 434.505 39.6693 433.012 41.248C431.518 42.8267 430.772 45.1307 430.772 48.16V68H423.988Z" fill="black"/>
</svg>
